<svg width="27" height="27" viewBox="0 0 27 27" fill="none" xmlns="http://www.w3.org/2000/svg">
<path d="M6 14.25V8.25H3.75C3.15326 8.25 2.58097 8.48705 2.15901 8.90901C1.73705 9.33097 1.5 9.90326 1.5 10.5V24C1.50112 24.1393 1.541 24.2755 1.61518 24.3934C1.68936 24.5113 1.79491 24.6062 1.92 24.6675C2.04051 24.7223 2.17338 24.7442 2.30511 24.7311C2.43683 24.7179 2.56273 24.6701 2.67 24.5925L6.5325 21.75H16.6125C16.8968 21.7584 17.1797 21.7084 17.4438 21.603C17.708 21.4976 17.9476 21.3391 18.148 21.1373C18.3484 20.9355 18.5052 20.6947 18.6088 20.4298C18.7123 20.165 18.7604 19.8817 18.75 19.5975V18.75H10.5C9.30653 18.75 8.16193 18.2759 7.31802 17.432C6.47411 16.5881 6 15.4435 6 14.25Z" fill="#BEDFF1"/>
<path d="M23.25 3H10.5C9.90326 3 9.33097 3.23705 8.90901 3.65901C8.48705 4.08097 8.25 4.65326 8.25 5.25V14.25C8.25 14.8467 8.48705 15.419 8.90901 15.841C9.33097 16.2629 9.90326 16.5 10.5 16.5H20.6625L24.2475 19.2825C24.3541 19.3613 24.4796 19.4104 24.6114 19.4249C24.7431 19.4394 24.8763 19.4187 24.9975 19.365C25.1251 19.3042 25.233 19.2086 25.3086 19.0892C25.3843 18.9697 25.4246 18.8314 25.425 18.69V5.25C25.4253 4.66603 25.1986 4.10482 24.7927 3.68495C24.3869 3.26508 23.8336 3.01947 23.25 3Z" fill="#BEDFF1"/>
</svg>
